<?xml version="1.0" encoding="UTF-8"?>
<svg version="1.1" xmlns="http://www.w3.org/2000/svg" width="512" height="512">
<path d="M0 0 C3.76247366 3.49984272 7.13757393 7.23034605 10.49389648 11.1105957 C13.41260565 14.44385639 16.45716653 17.6553744 19.5 20.875 C20.82330806 22.2808817 22.14621972 23.68713661 23.46875 25.09375 C24.1184375 25.7846875 24.768125 26.475625 25.4375 27.1875 C28.13969253 30.0698387 30.82274656 32.96950557 33.5 35.875 C33.97646973 36.39199463 34.45293945 36.90898926 34.94384766 37.44165039 C36.40054557 39.02315869 37.85659387 40.60526279 39.3125 42.1875 C41.49917164 44.56326443 43.68685052 46.93809673 45.875 49.3125 C46.62656372 50.12980591 46.62656372 50.12980591 47.39331055 50.96362305 C49.65556531 53.4183771 51.92369068 55.85499258 54.3125 58.1875 C57.51929646 51.99255229 60.51324936 45.77842812 63.23974609 39.36010742 C68.66548886 26.68474363 74.65057446 17.32032079 87.51953125 11.125 C98.38721419 6.80286224 109.44401976 7.18916858 120.3125 11.1875 C131.64908874 16.46033197 139.25149594 24.05446272 143.75 35.875 C149.70521579 55.9577407 139.73983984 73.20902569 131.875 91.1875 C131.0196933 93.15082871 130.16487218 95.11436904 129.31054688 97.078125 C128.894935 98.03299805 128.47932312 98.98787109 128.05111694 99.97167969 C127.23617905 101.84668744 126.42269218 103.72232661 125.61074829 105.59863281 C123.94632445 109.44432905 122.27762729 113.2846947 120.53076172 117.09375 C120.05525879 118.1559375 119.57975586 119.218125 119.08984375 120.3125 C118.68886475 121.18132812 118.28788574 122.05015625 117.87475586 122.9453125 C117.09195017 125.19525546 117.09195017 125.19525546 118.07226562 127.35522461 C119.73797525 129.81608106 121.72094184 131.7038133 123.875 133.75 C129.13923737 138.91591109 133.76612098 144.38805539 138.3125 150.1875 C139.04210937 151.07695312 139.77171875 151.96640625 140.5234375 152.8828125 C163.79477766 182.19653572 171.77038565 220.94383439 167.81640625 257.6484375 C162.8896694 294.49315225 143.44140158 328.33014501 114.125 351.25 C97.95165641 363.51695843 79.91228225 372.00918988 60.3125 377.1875 C58.53552734 377.66896484 58.53552734 377.66896484 56.72265625 378.16015625 C20.48412337 386.2006976 -19.40136115 378.69947405 -50.58544922 358.98779297 C-59.3797092 353.22795928 -67.1714111 346.51143717 -74.6875 339.1875 C-75.20618652 338.68395996 -75.72487305 338.18041992 -76.25927734 337.66162109 C-81.68880127 332.36829202 -86.90145622 326.98456226 -91.86889648 321.25561523 C-94.85133214 317.86399053 -97.95966104 314.59362141 -101.0625 311.3125 C-102.38068894 309.908003 -103.69839874 308.50305615 -105.015625 307.09765625 C-107.16436975 304.80650493 -109.31988023 302.52235106 -111.484375 300.24609375 C-116.14102049 295.25348223 -119.85067375 290.41739294 -122.6875 284.1875 C-123.00589844 283.5275 -123.32429688 282.8675 -123.65234375 282.1875 C-127.2490308 273.43611401 -127.04908824 262.13478761 -124.0625 253.25 C-119.35925889 242.28125238 -112.71799399 234.12518344 -101.625 229.375 C-97.36417097 227.73331176 -93.11648026 226.29474506 -88.6875 225.1875 C-89.26757812 224.47787109 -89.26757812 224.47787109 -89.859375 223.75390625 C-98.4189502 212.88494071 -100.61902676 202.84989243 -99.6875 189.1875 C-97.6563771 178.37209401 -91.84712492 169.03187411 -83.125 162.3125 C-76.86578675 158.24743975 -69.79980667 156.2453274 -62.6875 154.1875 C-63.08582031 153.65382813 -63.48414063 153.12015625 -63.89453125 152.5703125 C-71.37089883 142.05610213 -72.81427348 131.84787621 -71.6875 119.1875 C-69.28844742 108.23589272 -62.91997145 98.55965327 -53.6875 92.1875 C-47.60389544 88.8392972 -41.47305493 86.59582272 -34.6875 85.1875 C-35.40035156 84.48625 -36.11320312 83.785 -36.84765625 83.0625 C-41.69827998 78.26706453 -46.47561194 73.47418513 -50.87890625 68.2578125 C-52.23294758 66.70782998 -53.64748672 65.21034279 -55.08984375 63.7421875 C-65.17289355 53.3407256 -71.14161923 42.21530499 -70.9609375 27.5078125 C-69.99915691 15.82904824 -64.92911394 5.82387003 -56.375 -2.125 C-38.93558186 -15.74472258 -16.29697969 -14.43446772 0 0 Z " fill="#F7D1B8" transform="translate(234.6875,131.8125)"/>
<path d="M0 0 C3.76247366 3.49984272 7.13757393 7.23034605 10.49389648 11.1105957 C13.41260565 14.44385639 16.45716653 17.6553744 19.5 20.875 C20.82330806 22.2808817 22.14621972 23.68713661 23.46875 25.09375 C24.1184375 25.7846875 24.768125 26.475625 25.4375 27.1875 C28.13969253 30.0698387 30.82274656 32.96950557 33.5 35.875 C33.97646973 36.39199463 34.45293945 36.90898926 34.94384766 37.44165039 C36.40054557 39.02315869 37.85659387 40.60526279 39.3125 42.1875 C41.49917164 44.56326443 43.68685052 46.93809673 45.875 49.3125 C46.62656372 50.12980591 46.62656372 50.12980591 47.39331055 50.96362305 C49.65556531 53.4183771 51.92369068 55.85499258 54.3125 58.1875 C57.51929646 51.99255229 60.51324936 45.77842812 63.23974609 39.36010742 C68.66548886 26.68474363 74.65057446 17.32032079 87.51953125 11.125 C98.38721419 6.80286224 109.44401976 7.18916858 120.3125 11.1875 C131.64908874 16.46033197 139.25149594 24.05446272 143.75 35.875 C149.70521579 55.9577407 139.73983984 73.20902569 131.875 91.1875 C131.0196933 93.15082871 130.16487218 95.11436904 129.31054688 97.078125 C128.894935 98.03299805 128.47932312 98.98787109 128.05111694 99.97167969 C127.23617905 101.84668744 126.42269218 103.72232661 125.61074829 105.59863281 C123.94632445 109.44432905 122.27762729 113.2846947 120.53076172 117.09375 C120.05525879 118.1559375 119.57975586 119.218125 119.08984375 120.3125 C118.68886475 121.18132812 118.28788574 122.05015625 117.87475586 122.9453125 C117.09195017 125.19525546 117.09195017 125.19525546 118.07226562 127.35522461 C119.73797525 129.81608106 121.72094184 131.7038133 123.875 133.75 C129.13923737 138.91591109 133.76612098 144.38805539 138.3125 150.1875 C139.04210937 151.07695312 139.77171875 151.96640625 140.5234375 152.8828125 C163.79477766 182.19653572 171.77038565 220.94383439 167.81640625 257.6484375 C162.8896694 294.49315225 143.44140158 328.33014501 114.125 351.25 C97.95165641 363.51695843 79.91228225 372.00918988 60.3125 377.1875 C58.53552734 377.66896484 58.53552734 377.66896484 56.72265625 378.16015625 C20.48412337 386.2006976 -19.40136115 378.69947405 -50.58544922 358.98779297 C-59.3797092 353.22795928 -67.1714111 346.51143717 -74.6875 339.1875 C-75.20618652 338.68395996 -75.72487305 338.18041992 -76.25927734 337.66162109 C-81.68880127 332.36829202 -86.90145622 326.98456226 -91.86889648 321.25561523 C-94.85133214 317.86399053 -97.95966104 314.59362141 -101.0625 311.3125 C-102.38068894 309.908003 -103.69839874 308.50305615 -105.015625 307.09765625 C-107.16436975 304.80650493 -109.31988023 302.52235106 -111.484375 300.24609375 C-116.14102049 295.25348223 -119.85067375 290.41739294 -122.6875 284.1875 C-123.00589844 283.5275 -123.32429688 282.8675 -123.65234375 282.1875 C-127.2490308 273.43611401 -127.04908824 262.13478761 -124.0625 253.25 C-119.35925889 242.28125238 -112.71799399 234.12518344 -101.625 229.375 C-97.36417097 227.73331176 -93.11648026 226.29474506 -88.6875 225.1875 C-89.26757812 224.47787109 -89.26757812 224.47787109 -89.859375 223.75390625 C-98.4189502 212.88494071 -100.61902676 202.84989243 -99.6875 189.1875 C-97.6563771 178.37209401 -91.84712492 169.03187411 -83.125 162.3125 C-76.86578675 158.24743975 -69.79980667 156.2453274 -62.6875 154.1875 C-63.08582031 153.65382813 -63.48414063 153.12015625 -63.89453125 152.5703125 C-71.37089883 142.05610213 -72.81427348 131.84787621 -71.6875 119.1875 C-69.28844742 108.23589272 -62.91997145 98.55965327 -53.6875 92.1875 C-47.60389544 88.8392972 -41.47305493 86.59582272 -34.6875 85.1875 C-35.40035156 84.48625 -36.11320312 83.785 -36.84765625 83.0625 C-41.69827998 78.26706453 -46.47561194 73.47418513 -50.87890625 68.2578125 C-52.23294758 66.70782998 -53.64748672 65.21034279 -55.08984375 63.7421875 C-65.17289355 53.3407256 -71.14161923 42.21530499 -70.9609375 27.5078125 C-69.99915691 15.82904824 -64.92911394 5.82387003 -56.375 -2.125 C-38.93558186 -15.74472258 -16.29697969 -14.43446772 0 0 Z M-50.6875 13.1875 C-55.83545533 20.36857187 -56.95500511 27.50831247 -55.6875 36.1875 C-53.29367928 44.92099978 -46.53215759 51.10308035 -40.39941406 57.41503906 C-37.43233584 60.48705673 -34.53356113 63.62270805 -31.625 66.75 C-30.44671488 68.01181241 -29.26833056 69.2735322 -28.08984375 70.53515625 C-14.93652266 84.64048475 -14.93652266 84.64048475 -10.125 90.4375 C-9.320625 91.345 -8.51625 92.2525 -7.6875 93.1875 C-7.0275 93.1875 -6.3675 93.1875 -5.6875 93.1875 C-5.42324219 93.78046875 -5.15898437 94.3734375 -4.88671875 94.984375 C-3.64379575 97.26779054 -2.38348354 98.66176723 -0.5 100.4375 C2.01900185 102.82081791 4.32599266 105.32110429 6.59765625 107.9375 C10.15444667 112.03397069 13.83590665 115.99575102 17.5625 119.9375 C22.96739 125.67832101 28.32969522 131.45263105 33.6484375 137.2734375 C40.26898784 144.51527116 46.92990435 151.71968782 53.63500977 158.88330078 C54.82952265 160.16178389 56.02145377 161.44268445 57.21069336 162.72607422 C59.90443608 165.63155712 62.61241032 168.50668366 65.421875 171.30078125 C72.90982877 178.94737811 72.90982877 178.94737811 73.125 183.75 C72.3125 187.1875 72.3125 187.1875 69.3125 189.1875 C65.69212918 189.65401758 63.98751038 189.6809086 61.00390625 187.5 C59.95009766 186.3553125 59.95009766 186.3553125 58.875 185.1875 C58.17503906 184.445 57.47507812 183.7025 56.75390625 182.9375 C54.81651538 180.75522293 52.89587782 178.56083423 50.98046875 176.359375 C47.43382728 172.29518764 43.76783624 168.35676459 40.0625 164.4375 C34.65761 158.69667899 29.29530478 152.92236895 23.9765625 147.1015625 C21.15852525 144.019076 18.33203393 140.94462223 15.5 137.875 C15.00894775 137.34269775 14.51789551 136.81039551 14.01196289 136.26196289 C11.25849601 133.28144253 8.49535569 130.3102971 5.72265625 127.34765625 C4.81543823 126.37820068 4.81543823 126.37820068 3.88989258 125.38916016 C2.68078153 124.09782633 1.47099348 122.80712603 0.26049805 121.51708984 C-2.96395158 118.07112003 -6.10886866 114.57802765 -9.1875 111 C-14.36835204 105.13571642 -19.91275142 101.76313593 -27.765625 100.81640625 C-36.40445925 100.63554396 -43.00552502 101.92214144 -49.53125 107.8671875 C-56.01190464 115.01496835 -57.44095816 121.91182683 -57.0703125 131.296875 C-55.97052889 142.47426761 -46.88923111 149.63810199 -39.44921875 157.34912109 C-36.94273726 159.96467065 -34.502568 162.6348091 -32.0625 165.3125 C-23.39518718 174.78960555 -14.67237093 184.21320059 -5.90356445 193.59643555 C-1.62144407 198.18083714 2.65790854 202.76805184 6.88769531 207.40087891 C9.44978521 210.20224692 12.05030872 212.94774853 14.7265625 215.640625 C15.28456543 216.21345215 15.84256836 216.7862793 16.41748047 217.37646484 C17.48321435 218.4687709 18.56232773 219.54824377 19.65673828 220.61181641 C22.39934207 223.45398362 23.28921851 224.96574955 23.70703125 228.9453125 C23.3125 232.1875 23.3125 232.1875 22.25 234.1875 C18.84741769 235.94367152 16.9301896 235.31432135 13.3125 234.1875 C9.70572731 231.32475704 6.78223109 227.88255409 3.77416992 224.41333008 C-0.49838072 219.49848089 -4.89272613 214.72384669 -9.375 210 C-14.25503828 204.83595026 -19.12170271 199.66153878 -23.9375 194.4375 C-24.41517822 193.92292236 -24.89285645 193.40834473 -25.38500977 192.87817383 C-27.88337327 190.18007724 -30.33562436 187.45231764 -32.7421875 184.671875 C-39.23847074 177.23591027 -44.90069608 171.01665704 -55.140625 169.765625 C-62.26601717 169.49273764 -67.80222222 170.05345122 -73.6875 174.1875 C-74.574375 174.765 -75.46125 175.3425 -76.375 175.9375 C-82.02243641 181.43230299 -84.82200649 187.3901815 -85 195.25 C-84.90899483 203.43136505 -83.26028315 209.92721685 -77.375 215.8125 C-76.76785156 216.36421875 -76.16070312 216.9159375 -75.53515625 217.484375 C-73.63138596 219.23922457 -71.98684937 221.08902093 -70.3125 223.0625 C-67.72115795 226.0721753 -65.01495217 228.89838616 -62.1875 231.6875 C-58.83635283 234.99915553 -55.68664922 238.40104757 -52.6171875 241.97265625 C-50.26825857 244.66869412 -47.85736919 247.30535418 -45.4375 249.9375 C-44.74261475 250.6941394 -44.74261475 250.6941394 -44.03369141 251.46606445 C-41.57344691 254.14264516 -39.1082194 256.81457056 -36.640625 259.484375 C-35.8986084 260.2892334 -35.8986084 260.2892334 -35.14160156 261.11035156 C-33.76250694 262.60614593 -32.38131328 264.10000424 -31 265.59375 C-25.65694745 271.58663326 -25.65694745 271.58663326 -25.875 275.875 C-26.2771875 277.5146875 -26.2771875 277.5146875 -26.6875 279.1875 C-29.8313754 280.7594377 -32.21695175 280.53747125 -35.6875 280.1875 C-38.53125 278.0625 -38.53125 278.0625 -41.1875 275.1875 C-41.66469482 274.68057617 -42.14188965 274.17365234 -42.63354492 273.65136719 C-45.7097672 270.35880323 -48.67762087 266.96650087 -51.625 263.55859375 C-52.305625 262.77613281 -52.98625 261.99367188 -53.6875 261.1875 C-54.18121094 260.61918457 -54.67492187 260.05086914 -55.18359375 259.46533203 C-65.93909746 246.61809035 -65.93909746 246.61809035 -81.0625 240.73828125 C-89.92655341 240.30845107 -96.78251244 241.89693763 -103.52734375 247.796875 C-110.17039157 254.87846143 -111.02060852 262.06823006 -111.28125 271.52734375 C-109.90043295 280.03935413 -104.43613499 286.03033419 -98.5625 292 C-97.21949119 293.39789885 -95.87704718 294.79634053 -94.53515625 296.1953125 C-93.87918457 296.87368164 -93.22321289 297.55205078 -92.54736328 298.25097656 C-89.98531984 300.91862274 -87.49112049 303.6409318 -85 306.375 C-84.12988281 307.32632812 -83.25976562 308.27765625 -82.36328125 309.2578125 C-80.98566836 310.76614778 -79.60813638 312.27455772 -78.23193359 313.78417969 C-74.74203079 317.60888618 -71.22555784 321.40732079 -67.6875 325.1875 C-66.80449219 326.13753906 -65.92148438 327.08757812 -65.01171875 328.06640625 C-41.79511013 352.24607419 -9.97289094 365.48086737 23.42529297 366.47509766 C53.55818735 366.83677749 84.27572219 356.93932594 107.3125 337.1875 C108.11042969 336.51074219 108.90835938 335.83398438 109.73046875 335.13671875 C132.57018056 315.20066022 151.05308299 285.47515967 153.19970703 254.50244141 C155.13840367 214.71300083 147.00646761 181.34234745 119.85546875 151.30859375 C116.94336932 148.15116736 113.97884264 145.04603269 111 141.95166016 C108.39885061 139.23234513 105.85623964 136.46040154 103.3125 133.6875 C98.97903087 128.98051846 94.61982399 124.29823461 90.25 119.625 C85.13883163 114.15740039 80.06284753 108.65977781 75.01171875 103.13671875 C67.80152881 95.2587254 60.5430574 87.42629823 53.25 79.625 C48.13890389 74.15733199 43.06284836 68.65977871 38.01171875 63.13671875 C30.80152782 55.25872432 23.54298905 47.4263635 16.25 39.625 C12.00182871 35.07972945 7.7673764 30.52286056 3.5625 25.9375 C2.24185547 24.50470703 2.24185547 24.50470703 0.89453125 23.04296875 C-0.84828224 21.11559104 -2.55888051 19.15865716 -4.23828125 17.17578125 C-10.30127965 10.11328389 -17.18264744 4.01384658 -26.8515625 2.94921875 C-36.35292892 2.6626696 -44.37692251 5.93738244 -50.6875 13.1875 Z " fill="#121117" transform="translate(234.6875,131.8125)"/>
<path d="M0 0 C3.16259708 2.16642736 6.09705141 4.49990958 9 7 C10.010625 7.804375 11.02125 8.60875 12.0625 9.4375 C12.701875 9.953125 13.34125 10.46875 14 11 C14.38929688 10.56429688 14.77859375 10.12859375 15.1796875 9.6796875 C22.46579151 1.92351226 32.42012298 -4.77167385 43.33203125 -5.43359375 C44.82533824 -5.45698329 46.31914732 -5.45776302 47.8125 -5.4375 C48.59931152 -5.42992676 49.38612305 -5.42235352 50.19677734 -5.41455078 C62.84712448 -5.0586055 71.64883106 0.21749014 80.1875 9.25 C88.25024727 18.70669964 91.61808501 29.47414669 91.3046875 41.8359375 C90.02211624 55.15494676 85.56214707 66.46517534 79 78 C78.443125 78.99773437 77.88625 79.99546875 77.3125 81.0234375 C72.81365057 88.57198774 67.064172 94.70955292 61 101 C60.40445313 101.65871094 59.80890625 102.31742187 59.1953125 102.99609375 C50.98073418 111.84413458 39.94311878 118.17078775 29 123 C28.24332031 123.3403125 27.48664063 123.680625 26.70703125 124.03125 C16.59200581 128.01093214 6.49307408 126.59276695 -3.39453125 122.6640625 C-15.74484749 116.96391654 -25.37224474 109.53362916 -35 100 C-35.67546875 99.38511719 -36.3509375 98.77023438 -37.046875 98.13671875 C-51.62207416 84.66468834 -62.64711972 62.1191389 -64.203125 42.4296875 C-64.45579293 28.65928513 -60.2816839 16.37807422 -50.875 6.1875 C-37.35604639 -6.59697735 -16.10421657 -9.61445766 0 0 Z " fill="#F6514A" transform="translate(264,5)"/>
<path d="M0 0 C5.33731995 4.40969236 10.10903401 9.11272274 14.8125 14.1875 C15.51463623 14.94216553 16.21677246 15.69683105 16.94018555 16.47436523 C18.33402299 17.97402721 19.72640452 19.47504395 21.1171875 20.97753906 C22.68800456 22.66486382 24.27373051 24.33389606 25.875 25.9921875 C51.56611055 53.08313421 61.98805178 85.49630333 61.28515625 122.33203125 C61.01164527 130.47670767 60.00888346 138.11086254 58 146 C57.83902832 146.64227539 57.67805664 147.28455078 57.51220703 147.94628906 C49.24476423 179.95185532 28.31834198 208.14405323 -0.19726562 224.96826172 C-31.93219814 243.13075153 -31.93219814 243.13075153 -46.43359375 240.5703125 C-47.20896484 240.28800781 -47.20896484 240.28800781 -48 240 C-47.47792969 239.62230469 -46.95585937 239.24460937 -46.41796875 238.85546875 C-10.39250467 211.91523554 7.70068951 165.42384605 14.421875 122.24609375 C14.62059877 120.83156122 14.81321306 119.4161582 15 118 C15.09643799 117.28553711 15.19287598 116.57107422 15.29223633 115.83496094 C16.16504241 108.43903696 16.18612117 101.03446482 16.18530273 93.59814453 C16.18747543 91.3998638 16.2056552 89.20209785 16.22460938 87.00390625 C16.26352484 77.18160196 15.42285916 67.71241368 14 58 C13.7855968 56.36339388 13.5718954 54.72669542 13.359375 53.08984375 C10.99546245 36.47430354 6.89602539 20.12517311 0.8828125 4.44921875 C0 2 0 2 0 0 Z " fill="#DFBCA6" transform="translate(327,255)"/>
<path d="M0 0 C3.16259708 2.16642736 6.09705141 4.49990958 9 7 C10.010625 7.804375 11.02125 8.60875 12.0625 9.4375 C12.701875 9.953125 13.34125 10.46875 14 11 C14.38929688 10.56429688 14.77859375 10.12859375 15.1796875 9.6796875 C22.46579151 1.92351226 32.42012298 -4.77167385 43.33203125 -5.43359375 C44.82533824 -5.45698329 46.31914732 -5.45776302 47.8125 -5.4375 C48.59931152 -5.42992676 49.38612305 -5.42235352 50.19677734 -5.41455078 C62.84712448 -5.0586055 71.64883106 0.21749014 80.1875 9.25 C88.25024727 18.70669964 91.61808501 29.47414669 91.3046875 41.8359375 C90.02211624 55.15494676 85.56214707 66.46517534 79 78 C78.443125 78.99773437 77.88625 79.99546875 77.3125 81.0234375 C72.81365057 88.57198774 67.064172 94.70955292 61 101 C60.40445313 101.65871094 59.80890625 102.31742187 59.1953125 102.99609375 C50.98073418 111.84413458 39.94311878 118.17078775 29 123 C28.24332031 123.3403125 27.48664063 123.680625 26.70703125 124.03125 C16.59200581 128.01093214 6.49307408 126.59276695 -3.39453125 122.6640625 C-15.74484749 116.96391654 -25.37224474 109.53362916 -35 100 C-35.67546875 99.38511719 -36.3509375 98.77023438 -37.046875 98.13671875 C-51.62207416 84.66468834 -62.64711972 62.1191389 -64.203125 42.4296875 C-64.45579293 28.65928513 -60.2816839 16.37807422 -50.875 6.1875 C-37.35604639 -6.59697735 -16.10421657 -9.61445766 0 0 Z M-44 21 C-49.44686002 28.823007 -50.62559418 37.69171561 -49 47 C-44.86575656 63.86986091 -35.99020734 77.6302144 -24 90 C-23.46246094 90.61101562 -22.92492187 91.22203125 -22.37109375 91.8515625 C-14.26475679 100.75024819 0.69842712 110.86613857 12.9375 111.625 C27.75703768 110.75740048 40.7679806 99.77334267 51 90 C51.60328125 89.47148438 52.2065625 88.94296875 52.828125 88.3984375 C63.21698208 78.93195558 69.47611844 66.06729302 74 53 C74.556875 51.52080078 74.556875 51.52080078 75.125 50.01171875 C77.48256016 41.89708087 77.08419368 33.23998733 73.5625 25.5625 C69.50913664 18.5024164 64.21502731 12.92174682 56.5 10 C48.64278407 7.93016149 42.73065464 8.37473392 35.55078125 12.31640625 C28.8989514 16.70681768 23.12068483 22.18320399 18.64453125 28.78515625 C17 30 17 30 13.69140625 30.56640625 C8.8610979 29.82524783 7.03851788 27.50438561 4.125 23.875 C-2.17009783 16.5570723 -8.99897859 9.82407524 -19.0859375 8.78515625 C-29.90265856 8.32369204 -36.91415369 13.00259542 -44 21 Z " fill="#111016" transform="translate(264,5)"/>
<path d="M0 0 C6.34066885 3.72528031 11.12002933 9.27079803 13.25390625 16.32421875 C16.28624989 31.49933661 7.99322715 45.12088786 1.87890625 58.51171875 C0.78203828 60.96035549 -0.30618747 63.41279946 -1.39453125 65.86523438 C-8.90093868 82.71815791 -8.90093868 82.71815791 -11.74609375 88.32421875 C-17.03776768 83.94985958 -21.77065574 79.2951305 -26.43359375 74.26171875 C-27.12549805 73.52018555 -27.81740234 72.77865234 -28.53027344 72.01464844 C-30.60586075 69.78786573 -32.67613429 67.55623193 -34.74609375 65.32421875 C-35.93465324 64.04925297 -37.1234392 62.77449826 -38.3125 61.5 C-39.37409084 60.35843819 -40.43531306 59.21653343 -41.49609375 58.07421875 C-41.97264404 57.56238037 -42.44919434 57.05054199 -42.94018555 56.52319336 C-44.22191758 55.13551777 -45.48461229 53.73032866 -46.74609375 52.32421875 C-47.535 51.504375 -48.32390625 50.68453125 -49.13671875 49.83984375 C-50.74609375 47.32421875 -50.74609375 47.32421875 -50.50366211 44.56665039 C-49.2626161 39.25490947 -47.0314391 34.39853706 -44.87329102 29.40307617 C-44.06728738 27.53190142 -43.27819497 25.65422192 -42.49023438 23.77539062 C-34.58862709 5.34486704 -34.58862709 5.34486704 -27.05859375 0.82421875 C-26.31222656 0.36015625 -25.56585938 -0.10390625 -24.796875 -0.58203125 C-17.15452237 -4.65795265 -7.64512762 -3.49736978 0 0 Z " fill="#F6C4A2" transform="translate(351.74609375,157.67578125)"/>
<path d="M0 0 C7.66512542 3.90537478 12.74964068 10.05287055 16.21484375 17.83984375 C20.35574372 30.94239292 15.95421866 43.26514067 10.26171875 55.15234375 C5.54800478 64.17100599 -0.65215721 71.87047042 -7.73828125 79.15234375 C-8.64900391 80.13847656 -8.64900391 80.13847656 -9.578125 81.14453125 C-13.5274371 85.31772726 -17.73855658 88.33431712 -22.73828125 91.15234375 C-22.08215516 87.21558719 -20.13597603 84.3874862 -18.05078125 81.02734375 C-7.64625546 63.61122567 -3.88501232 43.05305837 -7.80078125 23.08984375 C-9.77327045 15.80102652 -13.56842484 9.26649091 -18.9609375 3.96875 C-20.73828125 2.15234375 -20.73828125 2.15234375 -20.73828125 0.15234375 C-14.15825033 -3.24380124 -6.76977688 -2.5637724 0 0 Z " fill="#DC4943" transform="translate(322.73828125,15.84765625)"/>
</svg>
